<svg width="21" height="29" viewBox="0 0 21 29" fill="none" xmlns="http://www.w3.org/2000/svg">
<g clip-path="url(#clip0_1_54)">
<path d="M2.5 10.6C2.8 10.5 3.1 10.4 3.4 10.2C3.9 9.90001 4.4 9.60001 4.9 9.30001C8.1 7.20001 11.2 5.00001 14.4 3.00001C15.2 2.50001 15.1 2.10001 14.6 1.50001C13.2 1.14441e-05 11.8 -0.299989 10.2 0.800012C7.1 3.00001 4 5.40001 0.9 7.90001C-0.4 8.90001 -0.3 9.50001 1.3 10.2C1.6 10.3 2.1 10.4 2.5 10.6Z" fill="#E56E48"/>
<path d="M13.6 25.7C11.3 23.9 9 22.1 6.6 20.3C6.3 20.1 6 19.9 5.6 19.7C4.6 19.2 3.2 19.4 2.3 20.1C1.8 20.6 1.8 21 2.3 21.4C3.7 22.6 5.1 23.9 6.5 25.1C7.6 26 8.7 26.9 9.8 27.7C10.2 28 10.6 28.1 11 28.3C12.1 28.1 12.8 27.6 13.5 26.9C14.2 26.4 14.1 26.1 13.6 25.7Z" fill="#E56E48"/>
<path d="M4.09999 12.2C3.89999 12.2 3.59999 12.4 3.39999 12.5C3.49999 12.8 3.59999 13.2 3.79999 13.3C4.69999 13.8 5.59999 14.4 6.59999 14.5C9.79999 14.9 13 15.1 16.2 15.4C17.5 15.5 18.8 15.7 20 15.8C20.1 15.7 20.1 15.5 20.2 15.4C19.3 13.8 17.9 12.9 16.1 12.5C12.2 11.8 8.09999 11.6 4.09999 12.2Z" fill="#E56E48"/>
</g>
<defs>
<clipPath id="clip0_1_54">
<rect width="20.2" height="28.3" fill="white"/>
</clipPath>
</defs>
</svg>
