<svg width="20" height="30" viewBox="0 0 20 30" fill="none" xmlns="http://www.w3.org/2000/svg">
<g clip-path="url(#clip0_1_49)">
<path d="M6.26912 29.4386C9.72965 27.4932 13.1902 25.5477 16.5728 23.4843C17.281 23.0168 18.0092 22.4514 18.6394 21.8659C18.8955 21.6121 19.0737 21.2403 19.056 20.8284C18.8847 19.6705 16.694 18.4054 15.6518 19.0086C11.5433 21.1276 7.5528 23.1687 3.44429 25.2877C2.87422 25.5792 2.40212 25.8909 1.93002 26.2025C1.33989 26.5921 1.33757 27.102 1.86521 27.5162C2.82251 28.3247 3.81992 28.9372 4.89525 29.6677C5.30718 29.65 5.81707 29.6523 6.26912 29.4386Z" fill="#E56E48"/>
<path d="M5.58349 16.3348C6.83933 16.1836 7.99721 16.0124 9.27311 15.7632C11.7069 15.3428 14.2386 14.9425 16.6724 14.5221C17.4184 14.3686 17.8905 14.057 17.8928 13.5471C18.2739 11.6857 17.5526 10.7214 15.7869 10.8703C12.0394 11.2259 8.34979 11.7974 4.66016 12.369C4.03224 12.4446 3.48223 12.6382 2.81419 12.9097C2.5982 12.9676 2.32203 13.3194 2.26186 13.6133C2.29501 14.947 4.20962 16.5639 5.58349 16.3348Z" fill="#E56E48"/>
<path d="M19.7974 8.73125C20.0134 8.6734 20.3073 8.73357 20.4254 8.65566C20.5634 8.47978 20.5457 8.06785 20.4678 7.94983C20.0782 7.3597 19.6887 6.76957 19.2991 6.17944C17.1531 3.69859 14.1763 2.7829 11.2195 1.76924C8.8305 0.973901 6.51939 0.296583 4.22833 -0.478702C3.83646 -0.558933 3.54256 -0.619106 3.15068 -0.699336C3.07045 -0.307465 2.85214 0.260285 3.10593 0.516393C4.23447 2.48271 5.34295 4.54699 8.08605 5.10861C11.9847 6.00888 16.1017 6.3414 19.7974 8.73125Z" fill="#E56E48"/>
</g>
<defs>
<clipPath id="clip0_1_49">
<rect width="19.9" height="29.6" fill="white"/>
</clipPath>
</defs>
</svg>
